<svg xmlns="http://www.w3.org/2000/svg" width="1600" height="1000" viewBox="0 0 1600 1000"><defs><filter id="shadow" x="-50%" y="-50%" width="200%" height="220%"><feDropShadow dx="0" dy="35" stdDeviation="30" flood-opacity=".19"/></filter></defs><rect width="1600" height="1000" fill="#e8b9a3"/><g transform="translate(320 155) rotate(-10 300 325)" filter="url(#shadow)"><rect width="600" height="650" fill="#f0eadc"/><text x="48" y="75" font-family="Arial" font-size="14" fill="#603c2f">AN IDENTITY IN THE MAKING</text><text x="40" y="260" font-family="Georgia,serif" font-size="135" fill="#793d2d">Good</text><text x="40" y="390" font-family="Georgia,serif" font-size="135" font-style="italic" fill="#793d2d">things.</text><path d="M45 537h510" stroke="#793d2d"/><text x="45" y="580" font-family="Arial" font-size="13" fill="#793d2d">A BRAND STUDY. A SPACE FOR POSSIBILITY.</text></g><g transform="translate(850 330) rotate(12 220 210)" filter="url(#shadow)"><rect width="440" height="410" fill="#713f30"/><g transform="translate(220 180)" fill="none" stroke="#f0dac4" stroke-width="1.5"><ellipse rx="36" ry="118" transform="rotate(0.0)"/><ellipse rx="36" ry="118" transform="rotate(22.5)"/><ellipse rx="36" ry="118" transform="rotate(45.0)"/><ellipse rx="36" ry="118" transform="rotate(67.5)"/><ellipse rx="36" ry="118" transform="rotate(90.0)"/><ellipse rx="36" ry="118" transform="rotate(112.5)"/><ellipse rx="36" ry="118" transform="rotate(135.0)"/><ellipse rx="36" ry="118" transform="rotate(157.5)"/></g><text x="40" y="359" font-family="Arial" font-size="13" fill="#f0dac4">IDENTITY MOCKUP / PROJECT TO COME</text></g></svg>